<svg width="355" height="107" viewBox="0 0 355 107" fill="none" xmlns="http://www.w3.org/2000/svg">
<g filter="url(#filter0_d_54_2)">
<mask id="path-1-outside-1_54_2" maskUnits="userSpaceOnUse" x="1" y="10" width="347" height="89" fill="black">
<rect fill="white" x="1" y="10" width="347" height="89"/>
<path d="M72.216 82.232H61.752L53.784 62.936H22.776L14.904 82.232H4.44L33.432 12.056H43.224L72.216 82.232ZM49.848 53.72L38.328 25.496L26.808 53.72H49.848ZM124.28 82.232H114.488V53.912C114.488 49.24 113.624 45.88 111.896 43.832C110.104 41.848 107.352 40.856 103.64 40.856C97.6235 40.856 92.6635 43.8 88.7595 49.688V82.232H78.9675V32.408H88.7595V37.688C93.6235 33.656 98.8075 31.64 104.312 31.64C117.624 31.64 124.28 39.064 124.28 53.912V82.232ZM145.595 22.424H135.803V12.152H145.595V22.424ZM145.691 82.232H135.803V32.696H145.691V82.232Z"/>
<path d="M212.449 62.456C212.449 69.176 209.377 74.328 203.233 77.912C198.433 80.792 192.833 82.232 186.433 82.232H156.769V12.248H187.009C202.689 12.248 210.529 18.424 210.529 30.776C210.529 36.92 208.001 41.784 202.945 45.368C209.281 48.952 212.449 54.648 212.449 62.456ZM200.449 30.776C200.449 24.568 195.905 21.464 186.817 21.464H166.465V41.24H184.897C189.569 41.24 193.313 40.248 196.129 38.264C199.009 36.344 200.449 33.848 200.449 30.776ZM202.273 62.456C202.273 58.424 200.641 55.352 197.377 53.24C194.561 51.32 190.817 50.36 186.145 50.36H166.465V73.016H186.145C190.881 73.016 194.753 71.992 197.761 69.944C200.769 67.832 202.273 65.336 202.273 62.456ZM232.409 82.232H222.521V12.152H232.409V82.232ZM293.024 57.752C293.024 65.432 290.464 71.64 285.344 76.376C280.544 80.792 274.592 83 267.488 83C260.384 83 254.464 80.792 249.728 76.376C244.608 71.64 242.048 65.432 242.048 57.752C242.048 50.264 244.384 44.024 249.056 39.032C253.728 34.04 259.872 31.544 267.488 31.544C275.104 31.544 281.312 34.072 286.112 39.128C290.72 44.056 293.024 50.264 293.024 57.752ZM282.752 57.752C282.752 52.76 281.344 48.696 278.528 45.56C275.712 42.36 272.032 40.76 267.488 40.76C262.944 40.76 259.296 42.328 256.544 45.464C253.728 48.6 252.32 52.696 252.32 57.752C252.32 62.616 253.824 66.552 256.832 69.56C259.648 72.44 263.2 73.88 267.488 73.88C271.904 73.88 275.552 72.408 278.432 69.464C281.312 66.52 282.752 62.616 282.752 57.752ZM345.208 72.92C345.208 79.896 343.16 85.56 339.064 89.912C334.968 94.264 329.592 96.44 322.936 96.44C313.272 96.44 306.2 92.312 301.72 84.056L310.36 79.928C313.304 84.856 317.496 87.32 322.936 87.32C326.648 87.32 329.656 86.072 331.96 83.576C334.264 81.016 335.416 77.464 335.416 72.92V71.192C331.256 75.288 326.84 77.336 322.168 77.336C315.704 77.336 310.36 75.128 306.136 70.712C301.848 66.232 299.704 60.824 299.704 54.488C299.704 48.088 301.816 42.648 306.04 38.168C310.264 33.688 315.64 31.448 322.168 31.448C326.904 31.448 331.32 33.08 335.416 36.344V32.216H345.208V72.92ZM335.32 54.104C335.32 50.264 334.104 47.032 331.672 44.408C329.304 41.848 326.136 40.568 322.168 40.568C318.776 40.568 315.864 41.912 313.432 44.6C311.064 47.352 309.88 50.648 309.88 54.488C309.88 58.136 311.096 61.304 313.528 63.992C315.96 66.616 318.84 67.928 322.168 67.928C325.944 67.928 329.08 66.712 331.576 64.28C334.072 61.848 335.32 58.456 335.32 54.104Z"/>
</mask>
<path d="M72.216 82.232H61.752L53.784 62.936H22.776L14.904 82.232H4.44L33.432 12.056H43.224L72.216 82.232ZM49.848 53.72L38.328 25.496L26.808 53.72H49.848ZM124.28 82.232H114.488V53.912C114.488 49.24 113.624 45.88 111.896 43.832C110.104 41.848 107.352 40.856 103.64 40.856C97.6235 40.856 92.6635 43.8 88.7595 49.688V82.232H78.9675V32.408H88.7595V37.688C93.6235 33.656 98.8075 31.64 104.312 31.64C117.624 31.64 124.28 39.064 124.28 53.912V82.232ZM145.595 22.424H135.803V12.152H145.595V22.424ZM145.691 82.232H135.803V32.696H145.691V82.232Z" fill="white"/>
<path d="M212.449 62.456C212.449 69.176 209.377 74.328 203.233 77.912C198.433 80.792 192.833 82.232 186.433 82.232H156.769V12.248H187.009C202.689 12.248 210.529 18.424 210.529 30.776C210.529 36.92 208.001 41.784 202.945 45.368C209.281 48.952 212.449 54.648 212.449 62.456ZM200.449 30.776C200.449 24.568 195.905 21.464 186.817 21.464H166.465V41.24H184.897C189.569 41.24 193.313 40.248 196.129 38.264C199.009 36.344 200.449 33.848 200.449 30.776ZM202.273 62.456C202.273 58.424 200.641 55.352 197.377 53.24C194.561 51.32 190.817 50.36 186.145 50.36H166.465V73.016H186.145C190.881 73.016 194.753 71.992 197.761 69.944C200.769 67.832 202.273 65.336 202.273 62.456ZM232.409 82.232H222.521V12.152H232.409V82.232ZM293.024 57.752C293.024 65.432 290.464 71.64 285.344 76.376C280.544 80.792 274.592 83 267.488 83C260.384 83 254.464 80.792 249.728 76.376C244.608 71.64 242.048 65.432 242.048 57.752C242.048 50.264 244.384 44.024 249.056 39.032C253.728 34.04 259.872 31.544 267.488 31.544C275.104 31.544 281.312 34.072 286.112 39.128C290.72 44.056 293.024 50.264 293.024 57.752ZM282.752 57.752C282.752 52.76 281.344 48.696 278.528 45.56C275.712 42.36 272.032 40.76 267.488 40.76C262.944 40.76 259.296 42.328 256.544 45.464C253.728 48.6 252.32 52.696 252.32 57.752C252.32 62.616 253.824 66.552 256.832 69.56C259.648 72.44 263.2 73.88 267.488 73.88C271.904 73.88 275.552 72.408 278.432 69.464C281.312 66.52 282.752 62.616 282.752 57.752ZM345.208 72.92C345.208 79.896 343.16 85.56 339.064 89.912C334.968 94.264 329.592 96.44 322.936 96.44C313.272 96.44 306.2 92.312 301.72 84.056L310.36 79.928C313.304 84.856 317.496 87.32 322.936 87.32C326.648 87.32 329.656 86.072 331.96 83.576C334.264 81.016 335.416 77.464 335.416 72.92V71.192C331.256 75.288 326.84 77.336 322.168 77.336C315.704 77.336 310.36 75.128 306.136 70.712C301.848 66.232 299.704 60.824 299.704 54.488C299.704 48.088 301.816 42.648 306.04 38.168C310.264 33.688 315.64 31.448 322.168 31.448C326.904 31.448 331.32 33.08 335.416 36.344V32.216H345.208V72.92ZM335.32 54.104C335.32 50.264 334.104 47.032 331.672 44.408C329.304 41.848 326.136 40.568 322.168 40.568C318.776 40.568 315.864 41.912 313.432 44.6C311.064 47.352 309.88 50.648 309.88 54.488C309.88 58.136 311.096 61.304 313.528 63.992C315.96 66.616 318.84 67.928 322.168 67.928C325.944 67.928 329.08 66.712 331.576 64.28C334.072 61.848 335.32 58.456 335.32 54.104Z" fill="url(#paint0_linear_54_2)"/>
<path d="M72.216 82.232V84.232H75.2062L74.0645 81.4683L72.216 82.232ZM61.752 82.232L59.9034 82.9953L60.4141 84.232H61.752V82.232ZM53.784 62.936L55.6326 62.1726L55.1219 60.936H53.784V62.936ZM22.776 62.936V60.936H21.4319L20.9242 62.1805L22.776 62.936ZM14.904 82.232V84.232H16.2481L16.7558 82.9875L14.904 82.232ZM4.44 82.232L2.59154 81.4683L1.44978 84.232H4.44V82.232ZM33.432 12.056V10.056H32.0943L31.5835 11.2923L33.432 12.056ZM43.224 12.056L45.0725 11.2923L44.5617 10.056H43.224V12.056ZM49.848 53.72V55.72H52.8245L51.6997 52.9642L49.848 53.72ZM38.328 25.496L40.1797 24.7402L38.328 20.2035L36.4763 24.7402L38.328 25.496ZM26.808 53.72L24.9563 52.9642L23.8315 55.72H26.808V53.72ZM72.216 82.232V80.232H61.752V82.232V84.232H72.216V82.232ZM61.752 82.232L63.6006 81.4687L55.6326 62.1726L53.784 62.936L51.9354 63.6993L59.9034 82.9953L61.752 82.232ZM53.784 62.936V60.936H22.776V62.936V64.936H53.784V62.936ZM22.776 62.936L20.9242 62.1805L13.0522 81.4765L14.904 82.232L16.7558 82.9875L24.6278 63.6915L22.776 62.936ZM14.904 82.232V80.232H4.44V82.232V84.232H14.904V82.232ZM4.44 82.232L6.28846 82.9957L35.2805 12.8197L33.432 12.056L31.5835 11.2923L2.59154 81.4683L4.44 82.232ZM33.432 12.056V14.056H43.224V12.056V10.056H33.432V12.056ZM43.224 12.056L41.3755 12.8197L70.3675 82.9957L72.216 82.232L74.0645 81.4683L45.0725 11.2923L43.224 12.056ZM49.848 53.72L51.6997 52.9642L40.1797 24.7402L38.328 25.496L36.4763 26.2518L47.9963 54.4758L49.848 53.72ZM38.328 25.496L36.4763 24.7402L24.9563 52.9642L26.808 53.72L28.6597 54.4758L40.1797 26.2518L38.328 25.496ZM26.808 53.72V55.72H49.848V53.72V51.72H26.808V53.72ZM124.28 82.232V84.232H126.28V82.232H124.28ZM114.488 82.232H112.488V84.232H114.488V82.232ZM111.896 43.832L113.424 42.5423L113.402 42.5165L113.38 42.4914L111.896 43.832ZM88.7595 49.688L87.0926 48.5828L86.7595 49.0852V49.688H88.7595ZM88.7595 82.232V84.232H90.7595V82.232H88.7595ZM78.9675 82.232H76.9675V84.232H78.9675V82.232ZM78.9675 32.408V30.408H76.9675V32.408H78.9675ZM88.7595 32.408H90.7595V30.408H88.7595V32.408ZM88.7595 37.688H86.7595V41.9437L90.0359 39.2278L88.7595 37.688ZM124.28 82.232V80.232H114.488V82.232V84.232H124.28V82.232ZM114.488 82.232H116.488V53.912H114.488H112.488V82.232H114.488ZM114.488 53.912H116.488C116.488 49.0856 115.613 45.1361 113.424 42.5423L111.896 43.832L110.367 45.1217C111.634 46.6239 112.488 49.3944 112.488 53.912H114.488ZM111.896 43.832L113.38 42.4914C111.079 39.9442 107.69 38.856 103.64 38.856V40.856V42.856C107.013 42.856 109.128 43.7518 110.411 45.1726L111.896 43.832ZM103.64 40.856V38.856C96.8281 38.856 91.2923 42.2488 87.0926 48.5828L88.7595 49.688L90.4264 50.7932C94.0347 45.3512 98.4189 42.856 103.64 42.856V40.856ZM88.7595 49.688H86.7595V82.232H88.7595H90.7595V49.688H88.7595ZM88.7595 82.232V80.232H78.9675V82.232V84.232H88.7595V82.232ZM78.9675 82.232H80.9675V32.408H78.9675H76.9675V82.232H78.9675ZM78.9675 32.408V34.408H88.7595V32.408V30.408H78.9675V32.408ZM88.7595 32.408H86.7595V37.688H88.7595H90.7595V32.408H88.7595ZM88.7595 37.688L90.0359 39.2278C94.5971 35.4468 99.3415 33.64 104.312 33.64V31.64V29.64C98.2735 29.64 92.6499 31.8652 87.4831 36.1482L88.7595 37.688ZM104.312 31.64V33.64C110.599 33.64 114.965 35.3833 117.798 38.5431C120.669 41.7444 122.28 46.7457 122.28 53.912H124.28H126.28C126.28 46.2303 124.562 40.0956 120.777 35.8729C116.954 31.6087 111.336 29.64 104.312 29.64V31.64ZM124.28 53.912H122.28V82.232H124.28H126.28V53.912H124.28ZM145.594 22.424V24.424H147.594V22.424H145.594ZM135.803 22.424H133.803V24.424H135.803V22.424ZM135.803 12.152V10.152H133.803V12.152H135.803ZM145.594 12.152H147.594V10.152H145.594V12.152ZM145.691 82.232V84.232H147.691V82.232H145.691ZM135.803 82.232H133.803V84.232H135.803V82.232ZM135.803 32.696V30.696H133.803V32.696H135.803ZM145.691 32.696H147.691V30.696H145.691V32.696ZM145.594 22.424V20.424H135.803V22.424V24.424H145.594V22.424ZM135.803 22.424H137.803V12.152H135.803H133.803V22.424H135.803ZM135.803 12.152V14.152H145.594V12.152V10.152H135.803V12.152ZM145.594 12.152H143.594V22.424H145.594H147.594V12.152H145.594ZM145.691 82.232V80.232H135.803V82.232V84.232H145.691V82.232ZM135.803 82.232H137.803V32.696H135.803H133.803V82.232H135.803ZM135.803 32.696V34.696H145.691V32.696V30.696H135.803V32.696ZM145.691 32.696H143.691V82.232H145.691H147.691V32.696H145.691ZM203.233 77.912L202.225 76.1844L202.214 76.1907L202.204 76.197L203.233 77.912ZM156.769 82.232H154.769V84.232H156.769V82.232ZM156.769 12.248V10.248H154.769V12.248H156.769ZM202.945 45.368L201.788 43.7364L199.218 45.558L201.96 47.1088L202.945 45.368ZM166.465 21.464V19.464H164.465V21.464H166.465ZM166.465 41.24H164.465V43.24H166.465V41.24ZM196.129 38.264L195.019 36.5999L194.998 36.6142L194.977 36.629L196.129 38.264ZM197.377 53.24L196.25 54.8925L196.27 54.906L196.29 54.9191L197.377 53.24ZM166.465 50.36V48.36H164.465V50.36H166.465ZM166.465 73.016H164.465V75.016H166.465V73.016ZM197.761 69.944L198.886 71.5972L198.898 71.5891L198.91 71.5808L197.761 69.944ZM212.449 62.456H210.449C210.449 68.4152 207.799 72.9332 202.225 76.1844L203.233 77.912L204.24 79.6396C210.955 75.7228 214.449 69.9368 214.449 62.456H212.449ZM203.233 77.912L202.204 76.197C197.757 78.865 192.523 80.232 186.433 80.232V82.232V84.232C193.142 84.232 199.108 82.719 204.262 79.627L203.233 77.912ZM186.433 82.232V80.232H156.769V82.232V84.232H186.433V82.232ZM156.769 82.232H158.769V12.248H156.769H154.769V82.232H156.769ZM156.769 12.248V14.248H187.009V12.248V10.248H156.769V12.248ZM187.009 12.248V14.248C194.64 14.248 199.995 15.7601 203.411 18.4511C206.736 21.0705 208.529 25.0522 208.529 30.776H210.529H212.529C212.529 24.1478 210.401 18.8655 205.886 15.3089C201.462 11.8239 195.057 10.248 187.009 10.248V12.248ZM210.529 30.776H208.529C208.529 36.2649 206.321 40.5235 201.788 43.7364L202.945 45.368L204.101 46.9996C209.681 43.0445 212.529 37.5751 212.529 30.776H210.529ZM202.945 45.368L201.96 47.1088C207.615 50.3074 210.449 55.3047 210.449 62.456H212.449H214.449C214.449 53.9913 210.947 47.5966 203.929 43.6272L202.945 45.368ZM200.449 30.776H202.449C202.449 27.11 201.063 24.1176 198.169 22.1405C195.411 20.2569 191.526 19.464 186.817 19.464V21.464V23.464C191.195 23.464 194.126 24.2231 195.913 25.4435C197.562 26.5704 198.449 28.234 198.449 30.776H200.449ZM186.817 21.464V19.464H166.465V21.464V23.464H186.817V21.464ZM166.465 21.464H164.465V41.24H166.465H168.465V21.464H166.465ZM166.465 41.24V43.24H184.897V41.24V39.24H166.465V41.24ZM184.897 41.24V43.24C189.837 43.24 194.026 42.1918 197.281 39.899L196.129 38.264L194.977 36.629C192.599 38.3042 189.3 39.24 184.897 39.24V41.24ZM196.129 38.264L197.238 39.9281C200.592 37.6922 202.449 34.6102 202.449 30.776H200.449H198.449C198.449 33.0858 197.426 34.9958 195.019 36.5999L196.129 38.264ZM202.273 62.456H204.273C204.273 57.7759 202.322 54.0576 198.463 51.5609L197.377 53.24L196.29 54.9191C198.96 56.6464 200.273 59.0721 200.273 62.456H202.273ZM197.377 53.24L198.503 51.5875C195.253 49.3713 191.074 48.36 186.145 48.36V50.36V52.36C190.56 52.36 193.869 53.2687 196.25 54.8925L197.377 53.24ZM186.145 50.36V48.36H166.465V50.36V52.36H186.145V50.36ZM166.465 50.36H164.465V73.016H166.465H168.465V50.36H166.465ZM166.465 73.016V75.016H186.145V73.016V71.016H166.465V73.016ZM186.145 73.016V75.016C191.162 75.016 195.46 73.9303 198.886 71.5972L197.761 69.944L196.635 68.2908C194.046 70.0537 190.599 71.016 186.145 71.016V73.016ZM197.761 69.944L198.91 71.5808C202.287 69.2097 204.273 66.1653 204.273 62.456H202.273H200.273C200.273 64.5067 199.25 66.4543 196.611 68.3072L197.761 69.944ZM232.409 82.232V84.232H234.409V82.232H232.409ZM222.521 82.232H220.521V84.232H222.521V82.232ZM222.521 12.152V10.152H220.521V12.152H222.521ZM232.409 12.152H234.409V10.152H232.409V12.152ZM232.409 82.232V80.232H222.521V82.232V84.232H232.409V82.232ZM222.521 82.232H224.521V12.152H222.521H220.521V82.232H222.521ZM222.521 12.152V14.152H232.409V12.152V10.152H222.521V12.152ZM232.409 12.152H230.409V82.232H232.409H234.409V12.152H232.409ZM285.344 76.376L286.698 77.8479L286.702 77.8442L285.344 76.376ZM249.727 76.376L251.091 74.9132L251.086 74.9078L249.727 76.376ZM249.055 39.032L247.595 37.6654L249.055 39.032ZM286.112 39.128L287.572 37.762L287.567 37.7565L287.562 37.751L286.112 39.128ZM278.527 45.56L277.026 46.8813L277.033 46.8888L277.039 46.8962L278.527 45.56ZM256.544 45.464L258.032 46.8002L258.039 46.7918L258.047 46.7832L256.544 45.464ZM256.831 69.56L258.262 68.1618L258.254 68.1537L258.246 68.1458L256.831 69.56ZM278.432 69.464L279.861 70.8626L278.432 69.464ZM293.023 57.752H291.023C291.023 64.9372 288.652 70.5909 283.985 74.9078L285.344 76.376L286.702 77.8442C292.275 72.6891 295.023 65.9268 295.023 57.752H293.023ZM285.344 76.376L283.989 74.9041C279.593 78.9489 274.139 81 267.487 81V83V85C275.044 85 281.494 82.6351 286.698 77.8479L285.344 76.376ZM267.487 83V81C260.836 81 255.42 78.9492 251.091 74.9132L249.727 76.376L248.364 77.8388C253.507 82.6348 259.931 85 267.487 85V83ZM249.727 76.376L251.086 74.9078C246.419 70.5909 244.048 64.9372 244.048 57.752H242.048H240.048C240.048 65.9268 242.796 72.6891 248.369 77.8442L249.727 76.376ZM242.048 57.752H244.048C244.048 50.7189 246.225 44.9834 250.516 40.3986L249.055 39.032L247.595 37.6654C242.542 43.0646 240.048 49.8091 240.048 57.752H242.048ZM249.055 39.032L250.516 40.3986C254.764 35.8589 260.355 33.544 267.487 33.544V31.544V29.544C259.388 29.544 252.691 32.2211 247.595 37.6654L249.055 39.032ZM267.487 31.544V33.544C274.611 33.544 280.276 35.8858 284.661 40.505L286.112 39.128L287.562 37.751C282.347 32.2582 275.596 29.544 267.487 29.544V31.544ZM286.112 39.128L284.651 40.494C288.873 45.0096 291.023 50.7108 291.023 57.752H293.023H295.023C295.023 49.8172 292.566 43.1024 287.572 37.762L286.112 39.128ZM282.751 57.752H284.751C284.751 52.3629 283.22 47.7926 280.016 44.2237L278.527 45.56L277.039 46.8962C279.467 49.5994 280.751 53.1571 280.751 57.752H282.751ZM278.527 45.56L280.029 44.2387C276.806 40.576 272.563 38.76 267.487 38.76V40.76V42.76C271.5 42.76 274.617 44.144 277.026 46.8813L278.527 45.56ZM267.487 40.76V38.76C262.426 38.76 258.208 40.5345 255.04 44.1448L256.544 45.464L258.047 46.7832C260.383 44.1215 263.461 42.76 267.487 42.76V40.76ZM256.544 45.464L255.055 44.1277C251.847 47.7013 250.32 52.3064 250.32 57.752H252.32H254.32C254.32 53.0856 255.608 49.4987 258.032 46.8002L256.544 45.464ZM252.32 57.752H250.32C250.32 63.0638 251.98 67.5365 255.417 70.9742L256.831 69.56L258.246 68.1458C255.667 65.5675 254.32 62.1682 254.32 57.752H252.32ZM256.831 69.56L255.401 70.9582C258.62 74.2499 262.7 75.88 267.487 75.88V73.88V71.88C263.699 71.88 260.675 70.6301 258.262 68.1618L256.831 69.56ZM267.487 73.88V75.88C272.398 75.88 276.576 74.221 279.861 70.8626L278.432 69.464L277.002 68.0654C274.527 70.595 271.409 71.88 267.487 71.88V73.88ZM278.432 69.464L279.861 70.8626C283.172 67.4781 284.751 63.0374 284.751 57.752H282.751H280.751C280.751 62.1946 279.451 65.5619 277.002 68.0654L278.432 69.464ZM339.064 89.912L340.52 91.2827L339.064 89.912ZM301.72 84.056L300.858 82.2514L298.958 83.1591L299.962 85.0099L301.72 84.056ZM310.36 79.928L312.077 78.9023L311.142 77.3377L309.498 78.1234L310.36 79.928ZM331.96 83.576L333.429 84.9326L333.438 84.9233L333.446 84.9139L331.96 83.576ZM335.416 71.192H337.416V66.416L334.013 69.7669L335.416 71.192ZM306.136 70.712L307.581 69.3296L307.581 69.3291L306.136 70.712ZM306.04 38.168L304.585 36.796L306.04 38.168ZM335.416 36.344L334.169 37.9081L337.416 40.4951V36.344H335.416ZM335.416 32.216V30.216H333.416V32.216H335.416ZM345.208 32.216H347.208V30.216H345.208V32.216ZM331.672 44.408L330.204 45.7661L330.205 45.7675L331.672 44.408ZM313.432 44.6L311.949 43.2582L311.932 43.2766L311.916 43.2955L313.432 44.6ZM313.528 63.992L312.045 65.3338L312.053 65.3427L312.061 65.3515L313.528 63.992ZM345.208 72.92H343.208C343.208 79.4777 341.296 84.6217 337.607 88.5413L339.064 89.912L340.52 91.2827C345.023 86.4983 347.208 80.3143 347.208 72.92H345.208ZM339.064 89.912L337.607 88.5413C333.934 92.4439 329.11 94.44 322.936 94.44V96.44V98.44C330.074 98.44 336.001 96.0841 340.52 91.2827L339.064 89.912ZM322.936 96.44V94.44C318.394 94.44 314.571 93.4723 311.392 91.6167C308.216 89.7629 305.569 86.9568 303.478 83.1021L301.72 84.056L299.962 85.0099C302.35 89.4112 305.479 92.7971 309.376 95.0713C313.269 97.3437 317.814 98.44 322.936 98.44V96.44ZM301.72 84.056L302.582 85.8606L311.222 81.7326L310.36 79.928L309.498 78.1234L300.858 82.2514L301.72 84.056ZM310.36 79.928L308.643 80.9537C311.923 86.4453 316.746 89.32 322.936 89.32V87.32V85.32C318.246 85.32 314.684 83.2667 312.077 78.9023L310.36 79.928ZM322.936 87.32V89.32C327.148 89.32 330.709 87.8793 333.429 84.9326L331.96 83.576L330.49 82.2194C328.602 84.2647 326.147 85.32 322.936 85.32V87.32ZM331.96 83.576L333.446 84.9139C336.175 81.8824 337.416 77.797 337.416 72.92H335.416H333.416C333.416 77.131 332.353 80.1496 330.473 82.2381L331.96 83.576ZM335.416 72.92H337.416V71.192H335.416H333.416V72.92H335.416ZM335.416 71.192L334.013 69.7669C330.128 73.5914 326.191 75.336 322.168 75.336V77.336V79.336C327.488 79.336 332.383 76.9846 336.819 72.6171L335.416 71.192ZM322.168 77.336V75.336C316.214 75.336 311.404 73.3263 307.581 69.3296L306.136 70.712L304.69 72.0944C309.315 76.9297 315.193 79.336 322.168 79.336V77.336ZM306.136 70.712L307.581 69.3291C303.657 65.2302 301.704 60.3212 301.704 54.488H299.704H297.704C297.704 61.3268 300.038 67.2338 304.691 72.0949L306.136 70.712ZM299.704 54.488H301.704C301.704 48.5759 303.636 43.633 307.495 39.54L306.04 38.168L304.585 36.796C299.996 41.663 297.704 47.6001 297.704 54.488H299.704ZM306.04 38.168L307.495 39.54C311.316 35.4871 316.153 33.448 322.168 33.448V31.448V29.448C315.126 29.448 309.211 31.8889 304.585 36.796L306.04 38.168ZM322.168 31.448V33.448C326.402 33.448 330.388 34.8946 334.169 37.9081L335.416 36.344L336.662 34.7799C332.252 31.2654 327.405 29.448 322.168 29.448V31.448ZM335.416 36.344H337.416V32.216H335.416H333.416V36.344H335.416ZM335.416 32.216V34.216H345.208V32.216V30.216H335.416V32.216ZM345.208 32.216H343.208V72.92H345.208H347.208V32.216H345.208ZM335.32 54.104H337.32C337.32 49.8002 335.94 46.0709 333.139 43.0485L331.672 44.408L330.205 45.7675C332.268 47.9931 333.32 50.7278 333.32 54.104H335.32ZM331.672 44.408L333.14 43.0499C330.34 40.0224 326.609 38.568 322.168 38.568V40.568V42.568C325.663 42.568 328.268 43.6736 330.204 45.7661L331.672 44.408ZM322.168 40.568V38.568C318.168 38.568 314.731 40.1835 311.949 43.2582L313.432 44.6L314.915 45.9418C316.997 43.6405 319.383 42.568 322.168 42.568V40.568ZM313.432 44.6L311.916 43.2955C309.216 46.4325 307.88 50.1993 307.88 54.488H309.88H311.88C311.88 51.0967 312.911 48.2715 314.948 45.9045L313.432 44.6ZM309.88 54.488H307.88C307.88 58.6284 309.278 62.2755 312.045 65.3338L313.528 63.992L315.011 62.6502C312.914 60.3325 311.88 57.6436 311.88 54.488H309.88ZM313.528 63.992L312.061 65.3515C314.84 68.3496 318.238 69.928 322.168 69.928V67.928V65.928C319.442 65.928 317.08 64.8824 314.995 62.6325L313.528 63.992ZM322.168 67.928V69.928C326.417 69.928 330.069 68.5404 332.971 65.7125L331.576 64.28L330.18 62.8475C328.09 64.8836 325.47 65.928 322.168 65.928V67.928ZM331.576 64.28L332.971 65.7125C335.945 62.815 337.32 58.853 337.32 54.104H335.32H333.32C333.32 58.059 332.198 60.881 330.18 62.8475L331.576 64.28Z" fill="#793185" mask="url(#path-1-outside-1_54_2)"/>
</g>
<rect x="158" y="52" width="2" height="24" fill="white"/>
<rect x="158" y="78" width="2" height="2" fill="white"/>
<rect x="224" y="78" width="2" height="2" fill="white"/>
<rect x="224" y="66" width="2" height="10" fill="white"/>
<path d="M254 77C252 76.5 248.5 73 247 70L248 69C248 69 250 73.5 255 76L254 77Z" fill="white"/>
<path d="M258.122 77.992C258.2 78.5387 258.414 78.9604 257.768 79.0528C257.273 79.1237 256.213 78.7705 256.142 78.2755C256.063 77.7288 256.443 77.2222 256.99 77.1439C257.556 77.5679 257.556 77.5679 258.122 77.992Z" fill="white"/>
<path d="M302.306 60.6298C301.116 58.9462 300.746 54.0103 301.566 50.758L302.976 50.6523C302.976 50.6523 301.557 55.3677 303.716 60.5241L302.306 60.6298Z" fill="white"/>
<path d="M304.783 64.0701C304.486 64.5356 304.373 64.9946 303.823 64.6438C303.402 64.3747 302.828 63.4151 303.097 62.9937C303.395 62.5282 304.013 62.3919 304.478 62.6891C304.631 63.3796 304.631 63.3796 304.783 64.0701Z" fill="white"/>
<defs>
<filter id="filter0_d_54_2" x="0.449707" y="10.056" width="353.758" height="96.3839" filterUnits="userSpaceOnUse" color-interpolation-filters="sRGB">
<feFlood flood-opacity="0" result="BackgroundImageFix"/>
<feColorMatrix in="SourceAlpha" type="matrix" values="0 0 0 0 0 0 0 0 0 0 0 0 0 0 0 0 0 0 127 0" result="hardAlpha"/>
<feOffset dx="3" dy="4"/>
<feGaussianBlur stdDeviation="2"/>
<feComposite in2="hardAlpha" operator="out"/>
<feColorMatrix type="matrix" values="0 0 0 0 0 0 0 0 0 0 0 0 0 0 0 0 0 0 0.25 0"/>
<feBlend mode="normal" in2="BackgroundImageFix" result="effect1_dropShadow_54_2"/>
<feBlend mode="normal" in="SourceGraphic" in2="effect1_dropShadow_54_2" result="shape"/>
</filter>
<linearGradient id="paint0_linear_54_2" x1="177" y1="0" x2="177" y2="96" gradientUnits="userSpaceOnUse">
<stop stop-color="#FFE76E"/>
<stop offset="1" stop-color="#FFC15E"/>
</linearGradient>
</defs>
</svg>
