<svg width="89" height="85" viewBox="0 0 89 85" fill="none" xmlns="http://www.w3.org/2000/svg">
<path d="M40.6953 5.18066C41.8927 1.49542 47.1073 1.49543 48.3047 5.18066L54.6094 24.5859C55.6804 27.8819 58.7521 30.1133 62.2178 30.1133H82.6221C86.4967 30.1136 88.1074 35.0721 84.9727 37.3496L68.4658 49.3428C65.6619 51.3799 64.4886 54.9909 65.5596 58.2871L71.8652 77.6924C73.0624 81.3775 68.8438 84.4416 65.709 82.1641L49.2021 70.1709C46.3984 68.134 42.6016 68.134 39.7979 70.1709L23.291 82.1641C20.1562 84.4416 15.9376 81.3775 17.1348 77.6924L23.4404 58.2871C24.5114 54.9909 23.3381 51.3799 20.5342 49.3428L4.02734 37.3496C0.892565 35.0721 2.50326 30.1135 6.37793 30.1133H26.7822C30.2479 30.1133 33.3196 27.8819 34.3906 24.5859L40.6953 5.18066Z" stroke="#CCCCCC" stroke-width="4"/>
</svg>
