<svg width="89" height="85" viewBox="0 0 89 85" fill="none" xmlns="http://www.w3.org/2000/svg">
<path d="M38.7937 4.56231C40.5898 -0.965554 48.4102 -0.965559 50.2063 4.56231L56.5115 23.9676C57.3147 26.4397 59.6185 28.1135 62.2178 28.1135H82.6217C88.4341 28.1135 90.8508 35.5512 86.1485 38.9676L69.6414 50.9607C67.5384 52.4886 66.6585 55.1968 67.4617 57.6689L73.7669 77.0742C75.563 82.6021 69.2361 87.1988 64.5338 83.7824L48.0267 71.7893C45.9238 70.2614 43.0762 70.2614 40.9733 71.7893L24.4662 83.7824C19.7639 87.1988 13.437 82.6021 15.2331 77.0742L21.5383 57.6689C22.3415 55.1968 21.4616 52.4886 19.3586 50.9607L2.85153 38.9676C-1.85075 35.5512 0.565893 28.1135 6.37823 28.1135H26.7822C29.3815 28.1135 31.6853 26.4397 32.4885 23.9676L38.7937 4.56231Z" fill="url(#paint0_radial_69_3)"/>
<defs>
<radialGradient id="paint0_radial_69_3" cx="0" cy="0" r="1" gradientUnits="userSpaceOnUse" gradientTransform="translate(61.5 68.5) rotate(-41.1287) scale(47.1301)">
<stop stop-color="#FFEC9C"/>
<stop offset="0.379808" stop-color="#FFE76E"/>
<stop offset="1" stop-color="#FFD567"/>
</radialGradient>
</defs>
</svg>
