<svg width="60" height="119" viewBox="0 0 60 119" fill="none" xmlns="http://www.w3.org/2000/svg">
<g clip-path="url(#clip0_70_9)">
<path d="M53.7937 17.5623C55.5898 12.0344 63.4102 12.0344 65.2063 17.5623L71.5115 36.9676C72.3147 39.4397 74.6185 41.1135 77.2178 41.1135H97.6217C103.434 41.1135 105.851 48.5512 101.148 51.9676L84.6414 63.9607C82.5384 65.4886 81.6585 68.1968 82.4617 70.6689L88.7669 90.0742C90.563 95.6021 84.2361 100.199 79.5338 96.7824L63.0267 84.7893C60.9238 83.2614 58.0762 83.2614 55.9733 84.7893L39.4662 96.7824C34.7639 100.199 28.437 95.6021 30.2331 90.0742L36.5383 70.6689C37.3415 68.1968 36.4616 65.4886 34.3586 63.9607L17.8515 51.9676C13.1492 48.5512 15.5659 41.1135 21.3782 41.1135H41.7822C44.3815 41.1135 46.6853 39.4397 47.4885 36.9676L53.7937 17.5623Z" fill="url(#paint0_radial_70_9)"/>
</g>
<defs>
<radialGradient id="paint0_radial_70_9" cx="0" cy="0" r="1" gradientUnits="userSpaceOnUse" gradientTransform="translate(76.5 81.5) rotate(-41.1287) scale(47.1301)">
<stop stop-color="#FFEC9C"/>
<stop offset="0.379808" stop-color="#FFE76E"/>
<stop offset="1" stop-color="#FFD567"/>
</radialGradient>
<clipPath id="clip0_70_9">
<rect width="60" height="119" fill="white"/>
</clipPath>
</defs>
</svg>
