<svg width="119" height="75" viewBox="0 0 119 75" fill="none" xmlns="http://www.w3.org/2000/svg">
<path d="M116.48 52.4561C116.48 59.1761 113.408 64.328 107.264 67.912C102.464 70.792 96.864 72.232 90.4641 72.232H60.8V2.24805H91.0401C106.72 2.24805 114.56 8.42405 114.56 20.776C114.56 26.92 112.032 31.784 106.976 35.368C113.312 38.952 116.48 44.6481 116.48 52.4561ZM104.48 20.776C104.48 14.568 99.9361 11.464 90.8481 11.464H70.496V31.24H88.9281C93.6001 31.24 97.344 30.248 100.16 28.264C103.04 26.344 104.48 23.848 104.48 20.776ZM106.304 52.4561C106.304 48.4241 104.672 45.3521 101.408 43.2401C98.5921 41.3201 94.848 40.3601 90.176 40.3601H70.496V63.0161H90.176C94.912 63.0161 98.7841 61.9921 101.792 59.944C104.8 57.832 106.304 55.3361 106.304 52.4561Z" fill="url(#paint0_linear_55_7)"/>
<path d="M71.1379 72.2771H60.7169V52.9687H36.0067L23.06 72.2771H4.13794L55.9246 2.2771L71.1379 2.27714V72.2771ZM60.7169 43.7467V14.0076L39.9902 43.7467H60.7169Z" fill="url(#paint1_linear_55_7)"/>
<path d="M91.0403 1.24805C98.9844 1.24808 105.127 2.80825 109.299 6.09473C113.516 9.41703 115.56 14.3744 115.56 20.7764C115.56 26.7442 113.272 31.6002 108.746 35.2764C114.57 39.0828 117.48 44.8569 117.48 52.4561C117.48 59.5526 114.2 65.0183 107.778 68.7686L107.779 68.7695C102.802 71.7555 97.0189 73.2324 90.4641 73.2324H72.1379V73.2773H59.717V53.9688H36.5403L23.8909 72.834L23.593 73.2773H2.15454L3.33423 71.6826L55.1204 1.68262L55.4202 1.27734H59.8V1.24805H91.0403ZM72.1379 62.0156H90.176C94.7679 62.0156 98.4251 61.0238 101.223 59.1211C104.042 57.1397 105.304 54.9197 105.304 52.4561C105.304 48.7481 103.831 45.9997 100.865 44.0801L100.845 44.0664C98.2462 42.2945 94.7195 41.3604 90.176 41.3604H72.1379V62.0156ZM41.9055 42.7471H59.717V17.1904L41.9055 42.7471ZM72.1379 30.2402H88.928C93.4658 30.2402 96.9874 29.2759 99.5842 27.4463L99.595 27.4395L99.6057 27.4316C102.248 25.6697 103.48 23.467 103.48 20.7764C103.48 17.9535 102.469 15.9576 100.508 14.6182C98.4788 13.232 95.3092 12.4639 90.8479 12.4639H72.1379V30.2402Z" stroke="#793185" stroke-width="2"/>
<defs>
<linearGradient id="paint0_linear_55_7" x1="60.309" y1="2.24805" x2="60.309" y2="72.2771" gradientUnits="userSpaceOnUse">
<stop stop-color="#FFE76E"/>
<stop offset="1" stop-color="#FFC15E"/>
</linearGradient>
<linearGradient id="paint1_linear_55_7" x1="37.6379" y1="2.2771" x2="37.6379" y2="72.2771" gradientUnits="userSpaceOnUse">
<stop stop-color="#FFE76E"/>
<stop offset="1" stop-color="#FFC15E"/>
</linearGradient>
</defs>
</svg>
