<svg width="46" height="44" viewBox="0 0 46 44" fill="none" xmlns="http://www.w3.org/2000/svg">
<path d="M21.5732 3.24512C22.0223 1.86315 23.9777 1.86316 24.4268 3.24512L27.6357 13.1201C28.2382 14.9741 29.9656 16.2295 31.915 16.2295H42.2988C43.7518 16.2297 44.3561 18.0893 43.1807 18.9434L34.7803 25.0459C33.2031 26.1918 32.5432 28.2231 33.1455 30.0771L36.3535 39.9531C36.8024 41.335 35.2214 42.4837 34.0459 41.6299L25.6455 35.5264C24.0683 34.3805 21.9317 34.3805 20.3545 35.5264L11.9541 41.6299C10.7786 42.4837 9.19763 41.3349 9.64648 39.9531L12.8545 30.0771C13.4568 28.2231 12.7969 26.1918 11.2197 25.0459L2.81934 18.9434C1.6439 18.0893 2.24825 16.2296 3.70117 16.2295H14.085C16.0344 16.2295 17.7618 14.9741 18.3643 13.1201L21.5732 3.24512Z" stroke="#CCCCCC" stroke-width="3"/>
</svg>
